<svg xmlns="http://www.w3.org/2000/svg" viewBox="0 0 320 320" role="img" aria-label="FC Barcelona"><title>FC Barcelona</title><path d="M160 20L186 39H278V106H262V205Q262 232 241 250L262 261V279Q160 318 58 279V261L79 250Q58 232 58 205V106H42V39H134Z" fill="#A50044"/><path d="M160 20L186 39H278V106H262V205Q262 232 241 250L262 261V279Q160 318 58 279V261L79 250Q58 232 58 205V106H42V39H134Z" transform="translate(160 160) scale(.925) translate(-160 -160)" fill="none" stroke="#004D98" stroke-width="4.5"/><text x="160" y="90" text-anchor="middle" font-family="Arial,Helvetica,sans-serif" font-size="29" font-weight="800" fill="#004D98" textLength="205" lengthAdjust="spacingAndGlyphs">FC BARCELONA</text><path d="M57 120Q160 108 263 120" fill="none" stroke="#004D98" stroke-width="3"/><g transform="translate(160 190) scale(.82)" fill="#004D98" color="#004D98"><path d="M0-76L-64-10L-10-19Z M0-76L10-19L64-10Z M-64 2L-10-8L-1 64Z M10-8L64 2L1 64Z"/></g><text x="160" y="285" text-anchor="middle" font-family="Arial,Helvetica,sans-serif" font-size="22" font-weight="800" fill="#004D98">BAR</text></svg>