<svg xmlns="http://www.w3.org/2000/svg" viewBox="0 0 320 320" role="img" aria-label="CF Estrela da Amadora"><title>CF Estrela da Amadora</title><path d="M75 28H245L284 67V194L245 244L160 303L75 244L36 194V67Z" fill="#FF0000"/><path d="M75 28H245L284 67V194L245 244L160 303L75 244L36 194V67Z" transform="translate(160 160) scale(.925) translate(-160 -160)" fill="none" stroke="#000000" stroke-width="4.5"/><text x="160" y="76" text-anchor="middle" font-family="Arial,Helvetica,sans-serif" font-size="25" font-weight="800" fill="#000000">CF ESTRELA</text><text x="160" y="105" text-anchor="middle" font-family="Arial,Helvetica,sans-serif" font-size="25" font-weight="800" fill="#000000">DA AMADORA</text><path d="M57 120Q160 108 263 120" fill="none" stroke="#000000" stroke-width="3"/><g transform="translate(160 190) scale(.82)" fill="#000000" color="#000000"><g transform="rotate(0)"><path d="M-24-63L0-39L24-63L35-52L0-17L-35-52Z"/></g><g transform="rotate(90)"><path d="M-24-63L0-39L24-63L35-52L0-17L-35-52Z"/></g><g transform="rotate(180)"><path d="M-24-63L0-39L24-63L35-52L0-17L-35-52Z"/></g><g transform="rotate(270)"><path d="M-24-63L0-39L24-63L35-52L0-17L-35-52Z"/></g></g></svg>