<svg xmlns="http://www.w3.org/2000/svg" viewBox="0 0 320 320" role="img" aria-label="Gloria Buzău"><title>Gloria Buzău</title><path d="M42 72Q160-30 278 72V207Q232 266 160 301Q88 266 42 207Z" fill="#003DA5"/><path d="M42 72Q160-30 278 72V207Q232 266 160 301Q88 266 42 207Z" transform="translate(160 160) scale(.925) translate(-160 -160)" fill="none" stroke="#FFD700" stroke-width="4.5"/><text x="160" y="97" text-anchor="middle" font-family="Arial,Helvetica,sans-serif" font-size="29" font-weight="800" fill="#FFD700" textLength="205" lengthAdjust="spacingAndGlyphs">GLORIA BUZĂU</text><path d="M57 120Q160 108 263 120" fill="none" stroke="#FFD700" stroke-width="3"/><g transform="translate(160 190) scale(.82)" fill="#FFD700" color="#FFD700"><circle r="56" fill="none" stroke="currentColor" stroke-width="8"/><g transform="rotate(0)"><path d="M-5-60H5V-14H-5Z"/></g><g transform="rotate(45)"><path d="M-5-60H5V-14H-5Z"/></g><g transform="rotate(90)"><path d="M-5-60H5V-14H-5Z"/></g><g transform="rotate(135)"><path d="M-5-60H5V-14H-5Z"/></g><g transform="rotate(180)"><path d="M-5-60H5V-14H-5Z"/></g><g transform="rotate(225)"><path d="M-5-60H5V-14H-5Z"/></g><g transform="rotate(270)"><path d="M-5-60H5V-14H-5Z"/></g><g transform="rotate(315)"><path d="M-5-60H5V-14H-5Z"/></g><circle r="13"/></g></svg>