<svg xmlns="http://www.w3.org/2000/svg" viewBox="0 0 320 320" role="img" aria-label="Leeds United"><title>Leeds United</title><path d="M160 18C248 18 280 79 280 157C280 230 228 279 160 302C92 279 40 230 40 157C40 79 72 18 160 18Z" fill="#FFFFFF"/><path d="M160 18C248 18 280 79 280 157C280 230 228 279 160 302C92 279 40 230 40 157C40 79 72 18 160 18Z" transform="translate(160 160) scale(.925) translate(-160 -160)" fill="none" stroke="#1D428A" stroke-width="4.5"/><text x="160" y="90" text-anchor="middle" font-family="Arial,Helvetica,sans-serif" font-size="29" font-weight="800" fill="#1D428A" textLength="205" lengthAdjust="spacingAndGlyphs">LEEDS UNITED</text><path d="M57 120Q160 108 263 120" fill="none" stroke="#1D428A" stroke-width="3"/><g transform="translate(160 190) scale(.82)" fill="#1D428A" color="#1D428A"><path d="M-65 52V-6A65 65 0 0 1 65-6V52 M-36 52V-5 M0 52V-17 M36 52V-5" fill="none" stroke="currentColor" stroke-width="9" stroke-linecap="square" stroke-linejoin="round"/><path d="M0-47L7-33L23-31L11-20L14-5L0-12L-14-5L-11-20L-23-31L-7-33Z"/></g><path d="M147 273L160 280L173 273" fill="none" stroke="#1D428A" stroke-width="4"/></svg>