<svg xmlns="http://www.w3.org/2000/svg" viewBox="0 0 320 320" role="img" aria-label="Maccabi Netanya"><title>Maccabi Netanya</title><path d="M160 20L186 39H278V106H262V205Q262 232 241 250L262 261V279Q160 318 58 279V261L79 250Q58 232 58 205V106H42V39H134Z" fill="#FFD700"/><path d="M160 20L186 39H278V106H262V205Q262 232 241 250L262 261V279Q160 318 58 279V261L79 250Q58 232 58 205V106H42V39H134Z" transform="translate(160 160) scale(.925) translate(-160 -160)" fill="none" stroke="#003DA5" stroke-width="4.5"/><text x="160" y="90" text-anchor="middle" font-family="Arial,Helvetica,sans-serif" font-size="29" font-weight="800" fill="#003DA5" textLength="205" lengthAdjust="spacingAndGlyphs">MACCABI NETANYA</text><path d="M57 120Q160 108 263 120" fill="none" stroke="#003DA5" stroke-width="3"/><g transform="translate(160 190) scale(.82)" fill="#003DA5" color="#003DA5"><path d="M0-73L16-16L73 0L16 16L0 73L-16 16L-73 0L-16-16Z"/><path d="M-58-38H-28 M28-38H58 M-58 38H-28 M28 38H58" fill="none" stroke="currentColor" stroke-width="9" stroke-linecap="square" stroke-linejoin="round"/></g><text x="160" y="285" text-anchor="middle" font-family="Arial,Helvetica,sans-serif" font-size="22" font-weight="800" fill="#003DA5">MNE</text></svg>