<svg xmlns="http://www.w3.org/2000/svg" viewBox="0 0 320 320" role="img" aria-label="Puskás Akadémia FC"><title>Puskás Akadémia FC</title><path d="M160 20L186 39H278V106H262V205Q262 232 241 250L262 261V279Q160 318 58 279V261L79 250Q58 232 58 205V106H42V39H134Z" fill="#003DA5"/><path d="M160 20L186 39H278V106H262V205Q262 232 241 250L262 261V279Q160 318 58 279V261L79 250Q58 232 58 205V106H42V39H134Z" transform="translate(160 160) scale(.925) translate(-160 -160)" fill="none" stroke="#FFD700" stroke-width="4.5"/><text x="160" y="76" text-anchor="middle" font-family="Arial,Helvetica,sans-serif" font-size="25" font-weight="800" fill="#FFD700">PUSKÁS</text><text x="160" y="105" text-anchor="middle" font-family="Arial,Helvetica,sans-serif" font-size="25" font-weight="800" fill="#FFD700">AKADÉMIA FC</text><path d="M57 120Q160 108 263 120" fill="none" stroke="#FFD700" stroke-width="3"/><g transform="translate(160 190) scale(.82)" fill="#FFD700" color="#FFD700"><path d="M-69 55V-4A69 69 0 0 1 69-4V55 M-45 55V-1A45 45 0 0 1 45-1V55 M-21 55V1A21 21 0 0 1 21 1V55 M-74 69H74" fill="none" stroke="currentColor" stroke-width="9" stroke-linecap="square" stroke-linejoin="round"/></g><text x="160" y="285" text-anchor="middle" font-family="Arial,Helvetica,sans-serif" font-size="22" font-weight="800" fill="#FFD700">PAF</text></svg>