<svg xmlns="http://www.w3.org/2000/svg" viewBox="0 0 320 320" role="img" aria-label="Spartak Varna"><title>Spartak Varna</title><defs><path id="top" d="M51 160A109 109 0 0 1 269 160"/><path id="bottom" d="M43 174A117 117 0 0 0 277 174"/></defs><circle cx="160" cy="160" r="143" fill="#E21A22"/><circle cx="160" cy="160" r="136" fill="none" stroke="#FFFFFF" stroke-width="4"/><circle cx="160" cy="160" r="99" fill="none" stroke="#FFFFFF" stroke-width="3"/><text font-family="Arial,Helvetica,sans-serif" font-size="27" font-weight="800" fill="#FFFFFF" ><textPath href="#top" startOffset="50%" text-anchor="middle">SPARTAK VARNA</textPath></text><text font-family="Arial,Helvetica,sans-serif" font-size="25" font-weight="800" fill="#FFFFFF" ><textPath href="#bottom" startOffset="50%" text-anchor="middle">SPV</textPath></text><circle cx="35" cy="162" r="4" fill="#FFFFFF"/><circle cx="285" cy="162" r="4" fill="#FFFFFF"/><g transform="translate(160 164) scale(0.95)" fill="#FFFFFF" color="#FFFFFF"><path d="M-32-64H32V-43Q32-24 0 0Q32 24 32 43V64H-32V43Q-32 24 0 0Q-32-24-32-43Z M-56-53V53 M56-53V53" fill="none" stroke="currentColor" stroke-width="9" stroke-linecap="square" stroke-linejoin="round"/></g></svg>