<svg xmlns="http://www.w3.org/2000/svg" viewBox="0 0 320 320" role="img" aria-label="Standard Liège"><title>Standard Liège</title><path d="M42 72Q160-30 278 72V207Q232 266 160 301Q88 266 42 207Z" fill="#FF0000"/><path d="M42 72Q160-30 278 72V207Q232 266 160 301Q88 266 42 207Z" transform="translate(160 160) scale(.925) translate(-160 -160)" fill="none" stroke="#FFFFFF" stroke-width="4.5"/><text x="160" y="97" text-anchor="middle" font-family="Arial,Helvetica,sans-serif" font-size="29" font-weight="800" fill="#FFFFFF" textLength="205" lengthAdjust="spacingAndGlyphs">STANDARD LIÈGE</text><path d="M57 120Q160 108 263 120" fill="none" stroke="#FFFFFF" stroke-width="3"/><g transform="translate(160 190) scale(.82)" fill="#FFFFFF" color="#FFFFFF"><path d="M-13-39H13L24 64H-24Z M-23-56H23V-44H-23Z M-7-72H7V-61H-7Z M-32-28L-74-7V-31L-32-41Z M32-28L74-7V-31L32-41Z"/></g><path d="M147 273L160 280L173 273" fill="none" stroke="#FFFFFF" stroke-width="4"/></svg>