<svg xmlns="http://www.w3.org/2000/svg" viewBox="0 0 320 320" role="img" aria-label="Ulsan HD FC"><title>Ulsan HD FC</title><defs><path id="top" d="M51 160A109 109 0 0 1 269 160"/><path id="bottom" d="M43 174A117 117 0 0 0 277 174"/></defs><circle cx="160" cy="160" r="143" fill="#CD2E3A"/><circle cx="160" cy="160" r="136" fill="none" stroke="#FFFFFF" stroke-width="4"/><circle cx="160" cy="160" r="99" fill="none" stroke="#FFFFFF" stroke-width="3"/><text font-family="Arial,Helvetica,sans-serif" font-size="27" font-weight="800" fill="#FFFFFF" ><textPath href="#top" startOffset="50%" text-anchor="middle">ULSAN HD FC</textPath></text><text font-family="Arial,Helvetica,sans-serif" font-size="25" font-weight="800" fill="#FFFFFF" ><textPath href="#bottom" startOffset="50%" text-anchor="middle">UHF</textPath></text><circle cx="35" cy="162" r="4" fill="#FFFFFF"/><circle cx="285" cy="162" r="4" fill="#FFFFFF"/><path d="M91 94H229V180Q229 224 160 253Q91 224 91 180Z" fill="none" stroke="#FFFFFF" stroke-width="3"/><g transform="translate(160 164) scale(0.77)" fill="#FFFFFF" color="#FFFFFF"><path d="M0-72L15-39L51-35L25-11L32 25L0 8L-32 25L-25-11L-51-35L-15-39Z M-29 37H29V47H-29Z M-45 53H45V64H-45Z"/></g></svg>