<svg xmlns="http://www.w3.org/2000/svg" viewBox="0 0 320 320" role="img" aria-label="Universitatea Craiova"><title>Universitatea Craiova</title><path d="M75 28H245L284 67V194L245 244L160 303L75 244L36 194V67Z" fill="#003DA5"/><path d="M75 28H245L284 67V194L245 244L160 303L75 244L36 194V67Z" transform="translate(160 160) scale(.925) translate(-160 -160)" fill="none" stroke="#FFD700" stroke-width="4.5"/><text x="160" y="76" text-anchor="middle" font-family="Arial,Helvetica,sans-serif" font-size="25" font-weight="800" fill="#FFD700">UNIVERSITATEA</text><text x="160" y="105" text-anchor="middle" font-family="Arial,Helvetica,sans-serif" font-size="25" font-weight="800" fill="#FFD700">CRAIOVA</text><path d="M57 120Q160 108 263 120" fill="none" stroke="#FFD700" stroke-width="3"/><g transform="translate(160 190) scale(.82)" fill="#FFD700" color="#FFD700"><g transform="rotate(0)"><path d="M-24-63L0-39L24-63L35-52L0-17L-35-52Z"/></g><g transform="rotate(90)"><path d="M-24-63L0-39L24-63L35-52L0-17L-35-52Z"/></g><g transform="rotate(180)"><path d="M-24-63L0-39L24-63L35-52L0-17L-35-52Z"/></g><g transform="rotate(270)"><path d="M-24-63L0-39L24-63L35-52L0-17L-35-52Z"/></g></g><path d="M147 273L160 280L173 273" fill="none" stroke="#FFD700" stroke-width="4"/></svg>