<svg xmlns="http://www.w3.org/2000/svg" viewBox="0 0 320 320" role="img" aria-label="IFK Värnamo"><title>IFK Värnamo</title><path d="M42 72Q160-30 278 72V207Q232 266 160 301Q88 266 42 207Z" fill="#003DA5"/><path d="M42 72Q160-30 278 72V207Q232 266 160 301Q88 266 42 207Z" transform="translate(160 160) scale(.925) translate(-160 -160)" fill="none" stroke="#FFFFFF" stroke-width="4.5"/><text x="160" y="97" text-anchor="middle" font-family="Arial,Helvetica,sans-serif" font-size="29" font-weight="800" fill="#FFFFFF">IFK VÄRNAMO</text><path d="M57 120Q160 108 263 120" fill="none" stroke="#FFFFFF" stroke-width="3"/><g transform="translate(160 190) scale(.82)" fill="#FFFFFF" color="#FFFFFF"><path d="M0-72L15-39L51-35L25-11L32 25L0 8L-32 25L-25-11L-51-35L-15-39Z M-29 37H29V47H-29Z M-45 53H45V64H-45Z"/></g><path d="M147 273L160 280L173 273" fill="none" stroke="#FFFFFF" stroke-width="4"/></svg>