<svg xmlns="http://www.w3.org/2000/svg" viewBox="0 0 320 320" role="img" aria-label="West Ham United"><title>West Ham United</title><defs><path id="top" d="M51 160A109 109 0 0 1 269 160"/><path id="bottom" d="M43 174A117 117 0 0 0 277 174"/></defs><circle cx="160" cy="160" r="143" fill="#7A263A"/><circle cx="160" cy="160" r="136" fill="none" stroke="#1BB1E7" stroke-width="4"/><circle cx="160" cy="160" r="99" fill="none" stroke="#1BB1E7" stroke-width="3"/><text font-family="Arial,Helvetica,sans-serif" font-size="22" font-weight="800" fill="#1BB1E7" ><textPath href="#top" startOffset="50%" text-anchor="middle">WEST HAM UNITED</textPath></text><text font-family="Arial,Helvetica,sans-serif" font-size="25" font-weight="800" fill="#1BB1E7" ><textPath href="#bottom" startOffset="50%" text-anchor="middle">WHU</textPath></text><circle cx="35" cy="162" r="4" fill="#1BB1E7"/><circle cx="285" cy="162" r="4" fill="#1BB1E7"/><path d="M91 94H229V180Q229 224 160 253Q91 224 91 180Z" fill="none" stroke="#1BB1E7" stroke-width="3"/><g transform="translate(160 164) scale(0.77)" fill="#1BB1E7" color="#1BB1E7"><path d="M-69 55V-4A69 69 0 0 1 69-4V55 M-45 55V-1A45 45 0 0 1 45-1V55 M-21 55V1A21 21 0 0 1 21 1V55 M-74 69H74" fill="none" stroke="currentColor" stroke-width="9" stroke-linecap="square" stroke-linejoin="round"/></g></svg>